<?xml version="1.0" encoding="UTF-8"?>
<!-- Generated by Pixelmator Pro 2.4.5 -->
<svg width="16" height="16" viewBox="0 0 16 16" xmlns="http://www.w3.org/2000/svg" xmlns:xlink="http://www.w3.org/1999/xlink">
    <path id="path1" fill="#ffffff" stroke="none" d="M 7.75 2 C 7.94891 2 8.13968 2.07902 8.28033 2.21967 C 8.42098 2.36032 8.5 2.55109 8.5 2.75 L 8.5 7 L 12.75 7 C 12.9489 7 13.1397 7.07902 13.2803 7.219669 C 13.421 7.36032 13.5 7.55109 13.5 7.75 C 13.5 7.94891 13.421 8.13968 13.2803 8.28033 C 13.1397 8.42098 12.9489 8.5 12.75 8.5 L 8.5 8.5 L 8.5 12.75 C 8.5 12.9489 8.42098 13.1397 8.28033 13.2803 C 8.13968 13.421 7.94891 13.5 7.75 13.5 C 7.55109 13.5 7.36032 13.421 7.21967 13.2803 C 7.07902 13.1397 7 12.9489 7 12.75 L 7 8.5 L 2.75 8.5 C 2.55109 8.5 2.36032 8.42098 2.21967 8.28033 C 2.07902 8.13968 2 7.94891 2 7.75 C 2 7.55109 2.07902 7.36032 2.21967 7.219669 C 2.36032 7.07902 2.55109 7 2.75 7 L 7 7 L 7 2.75 C 7 2.55109 7.07902 2.36032 7.21967 2.21967 C 7.36032 2.07902 7.55109 2 7.75 2 Z"/>
</svg>
