<svg width="16" height="16" viewBox="0 0 16 16" fill="none" xmlns="http://www.w3.org/2000/svg">
<path d="M6.354 8.04L1.581 12.813C1.5094 12.8822 1.45231 12.965 1.41304 13.0565C1.37378 13.1481 1.35314 13.2465 1.35232 13.3461C1.3515 13.4456 1.37053 13.5444 1.40828 13.6365C1.44603 13.7287 1.50176 13.8124 1.57221 13.8828C1.64267 13.9532 1.72643 14.0088 1.81862 14.0465C1.91081 14.0842 2.00958 14.1031 2.10916 14.1022C2.20875 14.1013 2.30715 14.0805 2.39864 14.0412C2.49012 14.0018 2.57285 13.9447 2.642 13.873L7.945 8.57C8.08545 8.42938 8.16434 8.23875 8.16434 8.04C8.16434 7.84125 8.08545 7.65063 7.945 7.51L2.642 2.206C2.50049 2.06945 2.311 1.99394 2.11435 1.99574C1.9177 1.99754 1.72963 2.07651 1.59064 2.21563C1.45165 2.35475 1.37286 2.5429 1.37125 2.73955C1.36963 2.9362 1.44532 3.12562 1.582 3.267L6.354 8.04ZM8.75 11.5C8.55109 11.5 8.36033 11.579 8.21967 11.7197C8.07902 11.8603 8 12.0511 8 12.25C8 12.4489 8.07902 12.6397 8.21967 12.7803C8.36033 12.921 8.55109 13 8.75 13H14.25C14.4489 13 14.6397 12.921 14.7803 12.7803C14.921 12.6397 15 12.4489 15 12.25C15 12.0511 14.921 11.8603 14.7803 11.7197C14.6397 11.579 14.4489 11.5 14.25 11.5H8.75Z" fill="white"/>
</svg>
