<svg width="100" height="100" viewBox="0 0 100 100" fill="none" xmlns="http://www.w3.org/2000/svg">
<path fill-rule="evenodd" clip-rule="evenodd" d="M68.1098 76.3053C68.1197 76.2904 68.1244 76.2707 68.1348 76.2459L68.1098 76.3053Z" fill="#0D1116"/>
<path fill-rule="evenodd" clip-rule="evenodd" d="M97.6611 61.1893C97.0772 61.1299 96.4924 61.0656 96.0522 61.0063C95.858 60.9816 95.6928 60.9617 95.568 60.942C95.6182 60.9074 95.6627 60.8725 95.7129 60.8383C95.6627 60.8084 95.6082 60.7789 95.5527 60.7488C95.683 60.6453 95.6578 60.5658 95.5381 60.5068C95.6777 60.4076 95.8176 60.3141 95.8731 60.1209C95.6981 59.943 95.4932 60.2596 95.2432 60.2545C95.0184 60.2645 94.7488 60.284 94.4637 60.3039C94.234 60.2845 94.0043 60.2664 93.7744 60.2496C93.9992 60.1854 94.2541 60.1709 94.5391 60.1854C94.5688 60.1063 94.599 60.032 94.6287 59.9531C94.2342 59.9979 93.8346 59.9926 93.4346 59.9779C94.9885 59.8149 96.882 59.6317 98.9805 59.4238C98.976 59.4192 97.8022 59.3049 96.6434 59.1965C96.5283 59.1815 96.4846 59.1719 96.2893 59.1568V58.1871C95.8986 58.1377 95.4291 58.0637 94.9947 57.9795C94.9295 56.644 94.0199 57.0742 93.71 57.7027C93.7149 57.7371 93.7229 57.7619 93.7276 57.7916C93.6424 57.8012 93.5537 57.8115 93.4637 57.8209C93.4137 57.158 93.1397 57.1828 93.0094 57.8707C92.6846 57.9 92.3656 57.9053 92.1006 57.8658C92.1504 57.7916 92.1957 57.6627 92.1957 57.3658C91.7408 57.2967 91.0115 56.7922 90.4174 57.6233C90.5123 57.549 90.5471 57.6676 90.5719 57.8209C90.4371 57.8162 90.3024 57.8063 90.1725 57.7963C90.2373 57.7123 90.3024 57.5982 90.3375 57.4797C90.1828 57.3119 89.8777 57.1883 89.7779 57.5543C89.7129 57.5641 89.6529 57.5836 89.5879 57.6037L89.5979 57.3164C89.6529 57.3016 89.7078 57.2719 89.7633 57.2475C89.8678 57.2225 89.9678 57.1977 90.0627 57.1779C90.2324 57.2324 90.4025 57.2568 90.5322 57.0641C90.852 56.99 91.1219 56.9256 91.2817 56.8912C91.6762 56.8022 91.8549 56.525 92.1846 56.1143C92.2793 56.0998 92.3832 56.0402 92.3832 55.8477V55.8324C92.5785 55.7088 92.6393 55.5805 92.7793 55.4418C92.6251 55.4274 92.4713 55.4094 92.318 55.3877C92.2779 55.3381 92.242 55.333 92.1918 55.3727C92.1621 55.3727 92.1418 55.3678 92.1063 55.3629C92.6461 54.6108 92.9037 55.3676 93.4432 54.324C93.2704 54.3085 93.0974 54.2954 92.9242 54.2846C93.3922 53.9324 93.8572 53.5762 94.3192 53.216C93.9537 52.7215 93.3397 53.3445 92.7951 53.5229C92.7455 53.3149 92.6754 53.043 92.6205 52.8154C92.7154 52.766 92.9455 52.5479 93.0902 52.5732C93.4949 52.6522 93.9149 52.3949 94.4492 51.7815C94.7938 51.3858 95.1533 51.2772 95.5983 50.9754C95.2934 50.2039 94.6289 50.8219 94.0193 51.2477C93.875 51.2375 93.7645 51.2129 93.7395 51.1686C94.1496 50.9209 94.559 50.7977 95.0186 49.882C94.8889 49.1553 94.3393 49.8625 93.9645 49.9961C93.5854 50.1346 93.2152 50.2285 92.8305 50.3379C92.7807 49.9221 92.7258 49.5315 92.6705 49.091C93.0192 48.9599 93.3657 48.823 93.7098 48.6803C93.7348 48.0623 93.75 47.617 93.7598 47.2561C93.3953 47.1522 93.1203 46.791 92.7606 47.0086C91.227 47.9338 90.1529 47.2707 88.8535 47.3504C87.5699 47.4244 86.316 47.3699 85.0613 47.315C83.9326 47.2707 82.7883 47.251 81.5693 47.459C81.4143 47.4887 81.2697 47.4887 81.1295 47.4787C81.1447 47.1225 81.2547 46.791 81.3297 46.4598C81.4246 46.4545 81.5193 46.4498 81.6246 46.4451C81.7295 46.5041 81.8291 46.6326 81.9342 46.6524C82.3486 46.7315 82.6436 46.5389 82.9389 46.4543C82.9486 46.4451 82.9533 46.4203 82.9584 46.4002C84.657 46.3508 86.9352 46.2867 89.5285 46.1578C89.5285 46.1529 88.4094 45.9748 87.29 45.7916C86.1711 45.6041 85.0572 45.4014 85.0768 45.327C86.1809 44.9066 84.2127 44.669 83.4131 44.5303C82.7686 44.4172 82.2143 44.3623 81.6795 44.333C81.5746 44.3229 81.4699 44.3229 81.3699 44.318C81.9139 44.2682 82.4588 44.2141 83.0133 44.1354C83.3932 44.0756 83.7977 43.9863 84.2172 43.8826C84.2473 43.9027 84.2723 43.8977 84.3024 43.8629C84.55 43.7994 84.7966 43.7318 85.042 43.6602C85.6463 43.4869 86.218 43.2941 86.7979 43.1359C86.8475 43.1506 86.9147 43.1557 86.9147 43.1557V43.0912C87.11 43.0813 87.0375 43.0711 87.0817 43.0568C88.4965 42.8191 91.977 42.493 96.2895 42.0621C96.2895 42.0621 95.1342 41.9486 93.9701 41.8348C93.386 41.7754 92.8106 41.7113 92.3711 41.6518C92.1762 41.6268 92.0141 41.607 91.8891 41.5873C91.9338 41.5576 91.985 41.5182 92.0354 41.4885C91.9801 41.4588 91.9252 41.424 91.8703 41.3943C92.3748 41.0037 90.592 40.9393 89.8227 40.8799C89.2006 40.8256 88.5758 40.8092 87.9518 40.8309C87.6166 40.8455 87.3051 40.8652 86.9145 40.885V40.7024C86.1332 40.6178 85.4035 40.4596 84.6096 40.2766C84.3994 40.3016 84.1887 40.3359 83.9535 40.3608C84.0639 40.2871 84.183 40.2076 84.2979 40.1184C84.3129 40.1088 84.3274 40.0982 84.3373 40.0891C84.4022 40.45 84.6801 40.1578 84.7449 39.8316C84.745 39.8194 84.7417 39.8074 84.7356 39.7969C84.9756 39.624 85.2258 39.4461 85.5205 39.2385C85.4559 39.233 85.4016 39.233 85.3512 39.2285C85.3565 39.2088 85.3563 39.1838 85.3563 39.1539C85.3117 39.1367 85.2698 39.1134 85.2316 39.0848C85.4617 38.976 85.6363 39.1246 85.9012 38.7531C85.786 38.7484 85.671 38.7418 85.5561 38.7334C85.7465 38.6342 85.9162 38.5459 86.076 38.4617C86.1807 38.8223 86.5356 38.5107 86.6604 38.1301C86.5006 37.9568 86.1953 37.8328 86.0961 38.1992C86.0317 38.2118 85.9681 38.2283 85.9057 38.2486L85.9209 37.9619C86.0959 37.9121 86.2752 37.8086 86.4854 37.6408C86.7057 37.4676 86.9451 37.4178 87.2348 37.2842C86.9051 36.7998 86.1404 37.4373 85.6912 37.3977C85.9908 37.1455 86.3006 36.9145 86.6201 36.7191H84.0172C84.0524 36.7191 84.0924 36.7547 84.1272 36.6807C83.9625 36.6703 83.8381 36.7402 83.6076 36.7205C84.1326 36.3297 84.532 36.0627 85.0067 35.6918C84.6371 35.202 84.0225 35.8399 83.4779 36.018C83.4279 35.8102 83.3582 35.5482 83.3031 35.3254C83.3981 35.276 83.6328 35.0584 83.7723 35.0883C84.1774 35.1623 84.5971 34.9125 85.1315 34.2943C85.4764 33.8986 85.841 33.7963 86.2809 33.4895C85.9756 32.7229 85.3113 33.3365 84.7068 33.767C84.5568 33.7523 84.4473 33.7328 84.4219 33.6883C84.832 33.4359 85.2412 33.3176 85.7012 32.3977C85.576 31.6756 85.0217 32.3779 84.6471 32.5164C84.2674 32.6549 83.8975 32.7492 83.5129 32.8576C83.4629 32.4401 83.4096 32.023 83.3531 31.6063C83.6828 31.4824 84.0074 31.3592 84.3973 31.2006C84.4174 30.5822 84.4324 30.1322 84.4475 29.7709C84.0826 29.6721 83.8076 29.3063 83.4432 29.5238C81.9139 30.4486 80.84 29.7859 79.5359 29.8654C78.2522 29.9441 76.9982 29.89 75.744 29.8357C74.6149 29.7859 73.4707 29.7709 72.2518 29.9789C71.9125 30.0383 71.5973 29.974 71.3977 29.9592C70.2184 30.8643 69.3289 30.5674 68.3998 30.5674C68.1199 30.5625 67.8402 30.5625 67.5606 30.5625C67.5906 30.5131 67.6203 30.4586 67.6457 30.4041C66.6565 30.1371 65.4621 30.4787 64.468 30.1377C64.368 29.9742 64.2131 29.6879 64.0283 29.6879H64.0731L64.0883 29.6133C64.118 29.6133 64.143 29.6301 64.168 29.6352C65.0824 29.9815 66.0764 29.9752 67.3854 29.6881C67.3904 29.6785 67.3904 29.6777 67.3904 29.6676C67.6604 29.6479 67.9451 29.6106 68.2346 29.566C68.2645 29.5858 68.2895 29.5869 68.3248 29.5572C69.269 29.4035 70.2781 29.167 71.1723 29.0188C72.5709 28.915 75.9736 28.8902 80.2102 28.6725C80.2102 28.6725 79.091 28.4899 77.9719 28.3119C76.8529 28.1186 75.7385 27.9162 75.7586 27.8469C76.8678 27.4213 74.8941 27.1838 74.0947 27.0453C73.4504 26.9316 72.8957 26.8822 72.3611 26.8479C71.8217 26.8178 71.3119 26.8076 70.7525 26.7633C70.0234 26.7043 69.3188 26.61 68.6191 26.4916C67.9285 26.3774 67.2391 26.2553 66.5512 26.1254C65.866 25.9969 65.1869 25.8684 64.5025 25.7695C63.818 25.6703 63.1287 25.5963 62.4291 25.5664C61.8964 25.5417 61.3635 25.522 60.8305 25.5074C61.0055 25.4379 61.185 25.4133 61.3252 25.0623C61.1652 25.1018 60.3656 25.4178 60.7607 25.3541C60.8002 25.3441 60.7756 25.4576 60.7854 25.5074C60.6604 25.5024 60.5354 25.4975 60.4158 25.4975C60.4006 25.4481 60.3654 25.4379 60.3258 25.4627C60.3258 25.4578 60.3305 25.4578 60.3305 25.4527C60.3154 25.4678 60.2953 25.4828 60.2807 25.4926C59.9457 25.483 59.6059 25.483 59.2715 25.4779C59.2961 25.468 59.3213 25.4529 59.3463 25.4432C59.3262 25.2652 59.0717 25.3096 58.9717 25.4729C58.7967 25.4729 58.627 25.4678 58.452 25.4678C58.5268 25.4084 58.5867 25.3242 58.6119 25.2154C58.4969 25.2502 58.382 25.2502 58.2623 25.2502C58.2725 25.1858 58.2772 25.1217 58.307 25.1414C58.5918 25.1414 58.8465 25.0525 59.0613 25.0375C59.0912 25.0475 59.0813 25.1465 59.0865 25.2008C59.2061 24.9434 59.2859 25.0723 59.4162 25.0525C59.9309 24.9731 60.4805 24.909 60.9998 24.8793C61.2598 24.8647 61.5147 24.8547 61.7594 24.8496C61.9992 24.8496 62.2291 24.8547 62.4389 24.8647C62.4588 24.8496 62.4736 24.8397 62.4938 24.8299C62.5436 24.8248 62.6135 24.8248 62.6834 24.8102C62.8434 24.8445 63.0033 24.8149 63.2233 24.726C63.2385 24.7209 63.2332 24.7604 63.2332 24.7951C62.8785 25.2703 62.4984 24.8742 62.1889 25.082C62.2242 25.092 62.2838 25.0527 62.2588 25.1762C62.049 24.9785 61.6342 24.7756 61.2897 25.3545C62.6785 25.0627 64.282 25.5869 65.7063 25.3445C65.6209 25.2951 65.2117 25.0326 65.3215 25.3494C64.8367 24.7408 63.9176 25.4135 63.4578 24.8149C63.5025 24.8248 63.5477 24.8299 63.5926 24.8197C63.7623 24.7854 63.9123 24.8793 64.077 24.8793C64.6766 24.8742 65.301 24.9336 65.8805 24.8596C66.0055 25.0031 66.2953 24.8248 66.4801 24.7508C66.535 24.7508 66.4652 24.9584 66.535 24.9338C66.8647 24.8397 67.1899 24.8994 67.5893 24.8104C67.3643 24.6072 66.9748 24.5928 66.6647 24.7857C66.6397 24.7561 66.685 24.6125 66.6397 24.6125C66.565 24.8549 66.5701 24.5928 66.5248 24.5879C66.0053 24.7215 65.5758 24.6816 65.1811 24.6326C65.276 24.3949 65.3859 24.4941 65.4904 24.4297C65.5858 24.7955 65.9553 24.1279 66.0951 24.3899C66.2852 24.1131 66.4449 24.3602 66.6494 24.0981C66.6897 24.0934 66.6598 24.1969 66.7 24.1922C66.9297 23.9791 67.2045 24.0486 67.3945 24.2416C67.2793 24.3555 67.1699 24.2365 67.0945 24.4342C67.1848 24.3898 67.2895 24.4342 67.4045 24.3752C67.4641 24.2119 67.3693 24.2859 67.4293 24.1182C67.7391 24.2518 68.1441 24.0441 68.4486 24.1873C68.4936 24.207 68.5086 24.3158 68.5586 24.3305C68.6535 24.3652 68.8135 24.2467 68.9232 24.2715C69.093 24.316 69.2082 24.3305 69.318 24.4051C69.393 24.3158 69.4676 24.2418 69.5428 24.1924C69.5025 24.3014 69.4729 24.3109 69.5174 24.3307C69.6475 24.2022 69.6924 24.1775 69.7574 24.3357C69.7074 24.4647 69.6824 24.3508 69.6324 24.5041C69.7223 24.5934 69.8373 24.4445 69.957 24.2668C69.9422 23.9549 69.7422 24.1332 69.6074 24.0838C69.3625 23.9897 69.1029 23.7723 68.8279 23.8414C68.6482 23.4852 68.2088 24.0344 68.0588 23.599C67.9986 23.609 67.944 23.6932 67.8838 23.7178C67.894 23.5545 67.894 23.5445 67.8389 23.4699C67.7787 23.6088 67.874 23.6285 67.8139 23.693C67.6943 23.8262 67.8139 23.5051 67.7488 23.4898C67.5291 23.4799 67.3342 23.4404 67.1246 23.4057C66.8301 23.3512 66.3 23.6828 66.1754 23.4207C65.7656 23.391 65.2961 23.391 64.8066 23.3957C64.6766 23.2031 64.352 23.2772 64.207 23.4006C63.7873 23.4107 63.3627 23.4156 62.958 23.4057C62.7531 23.4006 62.6283 23.2373 62.3885 23.2524C61.5389 23.3215 60.5647 23.3662 59.6008 23.4797C59.4758 23.4156 59.3359 23.4207 59.191 23.4402C59.4504 23.3414 59.6854 23.4156 59.9354 23.2422C60.5049 23.3166 61.1893 23.1086 61.8139 23.158C61.9986 23.1731 62.2734 23.2027 62.4482 23.158C62.5381 23.1336 62.5732 23.1629 62.6682 23.158C62.708 23.1533 62.7479 23.1533 62.7881 23.1533C62.9928 23.3609 63.4025 23.2818 63.6924 23.3561C63.7275 23.277 63.7572 23.2027 63.7924 23.1236C63.7765 23.1191 63.7612 23.1125 63.7471 23.1039C64.0522 23.1001 64.3572 23.0885 64.6617 23.0691C64.7617 23.0641 64.9264 23 64.9865 23.0344C65.0162 23.0545 65.0014 23.1629 65.0315 23.1629C65.1063 23.1729 65.2115 23.0889 65.2912 23.0938C65.526 23.1084 65.8059 23.1385 66.0805 23.1336C66.3801 23.1285 66.6703 23.2027 66.935 23.2768C66.9697 23.2867 67.035 23.1977 67.0699 23.1977C67.1246 23.2025 67.1596 23.2965 67.2098 23.2965C68.4535 23.3065 69.7676 23.435 71.1463 23.3709C71.2365 23.3262 71.1315 23.5141 71.2213 23.4693C71.3162 23.3856 71.416 23.3113 71.5164 23.2025C71.1565 22.9652 70.607 23.3658 70.3723 22.9205C69.8277 23.2768 69.4676 22.7178 68.9984 22.9305C68.9734 22.9205 68.9484 22.9107 68.9232 22.9107C68.9336 22.8906 68.9484 22.8709 68.9633 22.8514C70.4672 22.782 71.9307 23.1779 73.7344 22.49C73.8393 22.3272 73.24 22.4012 73.25 22.243C73.0203 22.0598 72.6504 22.0449 72.341 22.0748C72.1859 22.0895 72.0457 22.1147 71.9463 22.1342C71.841 22.1588 71.7865 22.1787 71.7865 22.1787C71.027 21.8525 70.7022 22.0895 69.9578 21.6791C69.7582 21.7186 69.5631 21.7582 69.3684 21.7881C69.3596 21.7734 69.3481 21.7605 69.3343 21.7503C69.3206 21.74 69.3049 21.7327 69.2883 21.7285C69.2635 21.7582 69.2535 21.7881 69.2434 21.8076C69.2086 21.8127 69.1736 21.8223 69.1385 21.8273C69.1148 21.803 69.0898 21.7799 69.0637 21.7582C69.0838 21.7432 69.0986 21.7285 69.1184 21.7139C69.5484 21.5506 69.9838 20.7295 69.9838 20.7295C69.3287 20.8857 68.9451 20.7576 68.3592 20.5084V20.3131H68.3541C68.1322 20.1178 67.9176 20.1221 67.6951 19.9606C67.3801 20.0053 66.9559 20.1371 66.7406 19.9789C66.166 19.9738 65.6615 19.6848 65.1367 19.5219C65.0217 19.4871 64.9121 19.3365 64.7971 19.3365H63.4334C63.3981 19.3365 63.3385 19.5979 63.2885 19.6275L63.3037 19.5873L63.144 19.8117C63.0537 19.8268 63.1787 19.4752 63.2588 19.4455C63.1684 19.4357 63.0838 19.3363 62.9938 19.3363H61.9047C61.7947 19.5316 61.6949 19.4047 61.59 19.6914C61.59 19.6318 61.6104 19.5635 61.6449 19.5041C61.3451 19.6129 61.2803 19.5316 61.1703 19.3363H39.3176C39.2824 19.3363 39.2426 19.459 39.2074 19.4639C39.0277 19.4639 38.8479 19.5176 38.7029 19.602C38.6979 19.6068 38.6979 19.6387 38.6979 19.6436C38.5529 19.693 38.4029 19.7856 38.2582 19.9291C38.1283 19.8152 37.9135 19.7574 37.7783 19.7725C37.6336 19.9408 37.5637 19.9736 37.4787 20.1369C37.4139 20.142 37.3537 20.1484 37.2887 20.1533C37.284 20.1236 37.2738 20.1 37.2688 20.0799C37.0441 20.0451 36.8291 19.7441 36.6393 20.1348L36.6342 19.9373C36.5393 20.051 36.4295 20.1746 36.3096 20.2441C36.2246 20.2541 36.1397 20.2641 36.0496 20.2787C36.0297 20.2641 36.0047 20.2541 35.9848 20.2293C35.9799 20.2539 35.9699 20.269 35.96 20.2887C35.8748 20.2986 35.785 20.3084 35.7002 20.3234C35.5502 20.3234 35.4053 20.3432 35.2654 20.3824C34.7758 20.4568 34.291 20.5357 33.7914 20.6053C33.242 20.6746 32.7436 20.7338 32.1441 20.7785C32.0793 21.0356 31.8356 21.1445 31.8356 21.2039V21.1988C31.6402 21.1738 31.6428 21.194 31.6027 21.2482C31.5678 21.2533 31.4449 21.2584 31.4449 21.2629V21.2482C31.4449 21.2584 31.3967 21.2629 31.3766 21.2731C31.127 21.3123 30.8856 21.3719 30.7904 21.6934C30.7846 21.7975 30.8105 21.9011 30.8647 21.9902C30.8598 22.0049 30.8488 22.025 30.8441 22.0498L30.8066 21.9953C30.8367 22.0447 30.8592 22.0891 30.8592 22.1389V22.1932L30.9244 22.1584C30.9543 22.183 31.0545 22.2129 31.0545 22.2375V22.2572C31.0545 22.2572 31.0816 22.2572 31.0867 22.2524C31.2565 22.4055 31.4449 22.5738 31.4799 22.8707C31.2201 23.3209 30.7898 22.8016 30.4852 22.658C30.5152 22.9695 30.6772 23.1973 30.8969 23.3705C30.7318 23.4543 30.593 23.5979 30.4932 23.8352C30.9229 23.9289 31.7828 23.7957 32.1822 23.944C31.8525 24.1717 31.3832 24.0479 30.9334 24.1666C30.9484 24.3643 31.0635 24.3049 31.0584 24.5527C30.6931 24.6276 30.3284 24.705 29.9643 24.785C28.8504 25.0223 27.7609 25.2104 26.7867 24.9529C26.2822 25.0568 25.7977 25.1756 25.318 25.2895C24.5387 25.1852 23.7041 25.0273 22.8398 25.1211C22.3055 25.1807 21.7609 25.408 21.2264 25.6307C21.1164 25.6307 21.0113 25.6307 20.9064 25.6406C20.4518 25.6947 19.9873 25.9027 19.5377 25.9818C18.933 26.0857 18.2736 25.6156 17.8791 26.2637C17.7891 25.9027 17.3795 26.1201 17.2943 26.4318C17.4744 26.5902 17.7742 26.2092 17.934 26.5358C17.7742 26.6049 17.6191 26.6793 17.4744 26.7631C16.7602 26.9857 15.9107 27.4357 15.2711 28.2967C15.2412 28.6627 15.426 28.3908 15.3963 28.7566C15.3861 29.0631 15.2514 28.984 15.1963 29.1619C15.3611 29.1527 15.4314 28.994 15.551 29.2164C15.4213 29.5924 15.1666 29.5973 15.0963 30.1316C15.2523 29.9501 15.4227 29.7813 15.6059 29.6272C15.5857 29.7012 15.5656 29.7754 15.5508 29.8549C15.5459 30.0178 15.541 30.1518 15.5359 30.2701C15.3765 30.4179 15.246 30.5941 15.1512 30.7897C15.2559 30.9328 15.4109 30.5967 15.5309 30.7106C15.5309 30.8984 15.5359 31.0518 15.5457 31.2348C15.4258 31.2842 15.3209 31.3732 15.2408 31.5463C15.3496 31.4766 15.4532 31.399 15.5506 31.3141C15.5654 31.502 15.5805 31.7297 15.6057 32.066C15.6605 32.1648 15.7156 32.259 15.7705 32.3432C15.5266 32.5247 15.3125 32.7432 15.1361 32.9908C15.2658 33.5547 15.0758 34.0195 14.9709 34.5045C14.916 34.5096 14.8563 34.5191 14.8012 34.5242C14.6414 34.5389 14.5164 34.3115 14.3764 34.2818C13.9568 34.2078 13.6621 34.4008 13.3723 34.4846C13.3475 34.5096 13.3322 34.5738 13.3322 34.6826L13.4223 34.6731C14.0119 34.6481 14.5762 34.8953 15.1008 34.8754C15.1906 34.8557 15.2576 34.8457 15.3475 34.8309L15.4297 34.8451V34.8108C16.0156 34.7316 16.4371 34.5498 16.9318 34.4654C17.2516 34.4063 17.5945 34.3748 17.9094 34.1795H17.9293C18.1791 34.3748 18.5689 34.6633 18.9834 34.757C18.8283 34.8412 18.6588 35.1078 18.459 35.4344C18.7389 35.3008 18.9686 35.2139 19.1783 35.115C19.0984 35.308 19.1934 35.5635 19.1533 35.6576C18.9785 35.7121 18.7438 35.5805 18.709 36.0949C18.8438 35.9412 18.9785 35.9399 19.1137 35.9746C18.5791 36.2518 17.9395 36.0703 17.4449 36.3572C17.0551 36.1643 16.6656 36.1057 16.2508 36.4322C16.3709 36.4568 16.4857 36.477 16.6057 36.4967C15.5014 36.5711 14.4072 36.6453 13.2982 36.8035C12.9135 36.8582 12.5088 36.9471 12.0891 37.0559C12.059 37.0361 12.034 37.0414 12.0041 37.0762C11.7592 37.1402 11.5145 37.2043 11.2647 37.2789C10.66 37.4518 10.0799 37.6447 9.50078 37.8031C9.45039 37.7881 9.37481 37.7785 9.37481 37.7834V37.843C9.37481 37.8576 9.26055 37.8676 9.21543 37.8774C7.80176 38.1147 4.32461 38.4463 0.0132828 38.8766C0.0132828 38.8766 1.16992 38.99 2.33418 39.099C2.91875 39.1639 3.49922 39.2279 3.93399 39.2873C4.13399 39.3119 4.29199 39.3316 4.4168 39.3514C4.37207 39.3811 4.3209 39.4154 4.27617 39.4502C4.32598 39.4799 4.38067 39.5147 4.43535 39.5443C3.93086 39.935 5.71406 39.999 6.4836 40.0584C7.17285 40.118 7.78672 40.1229 8.34649 40.1082C8.68614 40.0932 8.98438 40.0734 9.375 40.0537V40.2316C10.3516 40.3209 10.8941 40.4787 11.6889 40.6619C11.8986 40.6369 12.1137 40.6025 12.3484 40.5777C12.2385 40.6518 12.1213 40.7315 12.0064 40.8197C11.9965 40.8301 11.9777 40.8395 11.9678 40.8447C11.9027 40.4889 11.6264 40.7807 11.5617 41.1068C11.5664 41.1215 11.5658 41.1318 11.5705 41.1416C11.3309 41.315 11.0805 41.4879 10.7857 41.7006C10.8506 41.7055 10.9051 41.7055 10.9551 41.7106C10.9508 41.735 10.9491 41.7598 10.9502 41.7846C10.9902 41.7992 11.035 41.8244 11.0801 41.8537C10.8451 41.9625 10.6703 41.8143 10.4105 42.1852C10.5205 42.1902 10.6006 42.1953 10.7502 42.1998C10.5604 42.3037 10.3955 42.3928 10.2307 42.477C10.1256 42.116 9.7709 42.4275 9.6461 42.8082C9.80606 42.9815 10.1105 43.1 10.2109 42.7391C10.2707 42.7291 10.3357 42.7094 10.4006 42.6897L10.3857 42.9715C10.2158 43.0209 10.0311 43.1301 9.8211 43.2981C9.60137 43.4709 9.36153 43.5162 9.07168 43.6543C9.40137 44.1391 10.1658 43.2617 10.6205 43.3063C10.3156 43.5537 10.0109 43.359 9.68633 43.7496H12.2893C12.2541 43.7496 12.2193 43.9492 12.1793 44.0236C12.3492 44.0336 12.4691 44.0815 12.699 44.1012C12.1793 44.4914 11.7746 44.8178 11.3051 45.1883C11.6697 45.6781 12.2844 45.0695 12.8338 44.8912C12.8838 45.0988 12.9488 45.376 13.0039 45.5984C12.9141 45.6479 12.6791 45.8678 12.5342 45.8432C12.1295 45.7691 11.71 46.0229 11.1754 46.6361C10.8307 47.0367 10.4709 47.1406 10.0262 47.4475C10.3311 48.2143 10.9955 47.6016 11.6049 47.1707C11.75 47.1858 11.86 47.2059 11.8848 47.2502C11.4752 47.5025 11.0656 47.6211 10.6059 48.5414C10.7357 49.2635 11.2854 48.5613 11.6602 48.4227C12.0398 48.2844 12.4096 48.1904 12.7941 48.0815C12.8492 48.4969 12.8992 48.8928 12.9543 49.3328C12.6059 49.4631 12.2594 49.5983 11.9148 49.7385C11.8953 50.2131 11.8787 50.6879 11.8648 51.1627C12.2295 51.2664 12.5045 51.6326 12.8643 51.4104C14.398 50.4906 15.4721 51.1533 16.7711 51.074C18.0551 50.9949 19.309 51.049 20.5631 51.1033C21.6971 51.1531 22.8363 51.168 24.0553 50.9602C24.2102 50.9354 24.3602 50.9354 24.4949 50.9402C24.4799 51.3014 24.3701 51.6279 24.2953 51.9641C24.2004 51.9691 24.1055 51.9691 24.0055 51.9742C23.8957 51.915 23.7957 51.7859 23.6959 51.766C23.2762 51.6875 22.9813 51.8801 22.6918 51.9693C22.6794 51.9835 22.6708 52.0005 22.6666 52.0188C20.9682 52.0729 18.6897 52.1324 16.0967 52.2658C16.0967 52.2658 17.216 52.4488 18.335 52.627C19.4541 52.8152 20.5682 53.0229 20.5482 53.0922C19.4441 53.5127 21.4125 53.7551 22.2121 53.8938C22.8564 54.0072 23.4111 54.0568 23.9508 54.0914C24.0508 54.0963 24.1557 54.1016 24.2605 54.1063C23.7109 54.151 23.1662 54.0641 22.6168 54.1434C22.427 54.1682 22.2322 54.1014 22.0371 54.1014H21.8164C21.8113 54.1014 21.8014 54.2967 21.7963 54.2967H21.7016C21.7416 54.1014 21.7764 54.1014 21.8164 54.1014H21.1318C21.1221 54.1014 21.117 54.2615 21.1119 54.2719C21.077 54.2674 21.0369 54.3399 21.007 54.3399C20.9772 54.4096 20.9469 54.5147 20.9174 54.5842C20.8873 54.6135 20.8525 54.652 20.8172 54.6762C20.7373 54.7014 20.6623 54.7303 20.5826 54.7504C20.3678 54.8149 20.1527 54.8832 19.943 54.9477C19.5182 54.9672 19.0936 54.9891 18.6641 55.0191C18.3793 55.1033 18.5742 54.8029 18.2893 54.8865C18.1693 54.9508 18.0443 55.0209 17.9195 55.0852C17.6748 55.0061 17.2949 55.0463 17.0254 55.1451C17.1002 55.3281 17.3352 55.3576 17.565 55.3131C17.55 55.3234 17.5352 55.333 17.525 55.3432C17.7549 55.3877 17.9846 55.4027 18.2193 55.4072C17.7498 55.4764 17.1252 55.5555 16.3709 55.6395C15.9559 55.5947 15.5914 55.5109 15.3166 55.318C15.3865 55.2588 15.7363 55.3875 15.9111 55.2141C16.1359 55.3082 16.5158 55.2934 16.6354 55.0709C15.8861 54.7789 13.7777 55.2045 12.9283 55.1305C12.7584 55.3084 12.5037 55.3777 12.4188 55.6596C12.5984 55.8326 12.8037 55.5211 13.0533 55.526C13.4779 55.5014 14.0574 55.4619 14.6268 55.3975C14.6471 55.4221 14.6621 55.4469 14.6719 55.4717C14.4219 55.5902 14.1072 55.615 13.7576 55.5951C13.7267 55.6723 13.6967 55.75 13.6678 55.8279C14.0625 55.7832 14.4619 55.7832 14.8615 55.8029C13.3029 55.9664 11.4094 56.1492 9.31602 56.3566C9.31602 56.3566 10.5402 56.4709 11.7045 56.5848C11.8191 56.5945 11.9139 56.6094 12.1092 56.619V57.5938C12.8904 57.6775 13.5932 57.8359 14.3924 58.019C15.0217 57.9447 15.8258 57.8063 16.3652 57.935C17.7643 57.8801 19.0984 58.0783 20.4822 58.2018C20.2574 58.2166 19.9852 58.2516 19.7004 58.3006C19.6453 58.2912 19.5863 58.3006 19.5215 58.3307C19.4318 58.3453 19.335 58.365 19.2402 58.3848C18.8356 58.2959 18.4898 58.0828 18.1402 58.2912C17.0859 57.9941 15.8713 57.8707 14.9272 58.3651C14.6223 58.469 14.8207 58.0234 14.6857 58.0584C14.1014 58.3111 13.6719 58.2565 12.8906 58.2365V59.5865C13.4766 59.6363 13.8164 59.7108 14.2512 59.7949C14.3107 61.1348 15.251 60.7047 15.5605 60.0715C15.5557 60.0418 15.5635 60.0174 15.5584 59.9877C15.6434 59.9725 15.7346 59.9625 15.8246 59.9527C15.712 60.0855 15.5948 60.2142 15.473 60.3387C15.6781 60.3588 15.8145 60.3733 15.9543 60.3879C15.9992 60.4377 16.0451 60.4426 16.0949 60.4076C16.1201 60.4076 16.1504 60.4129 16.1803 60.418C15.6408 61.1695 15.3914 60.4076 14.8465 61.4568C15.0166 61.4715 15.1365 61.4768 15.3713 61.4959C14.8465 61.8869 14.4471 62.1988 13.9725 62.5647C14.342 63.0592 14.9566 62.4359 15.5012 62.258C15.5512 62.4656 15.6162 62.7377 15.6713 62.9606C15.5813 63.0098 15.3465 63.2324 15.2016 63.2029C14.802 63.1285 14.3822 63.3809 13.8477 63.999C13.5029 64.3945 13.1381 64.4983 12.6986 64.8057C12.998 65.5768 13.6678 64.9586 14.2723 64.5283C14.4172 64.543 14.532 64.568 14.557 64.6074C14.1473 64.8592 13.7375 64.9781 13.2779 65.8981C13.4029 66.6203 13.9574 65.918 14.3322 65.7795C14.692 65.6512 15.0465 65.5568 15.4111 65.4531C15.2363 65.5867 15.0564 65.7649 14.8566 65.9926C14.5119 66.3932 14.1473 66.4969 13.7074 66.7984C14.0074 67.5703 14.677 66.9572 15.2814 66.5266C15.4264 66.5412 15.5414 66.5615 15.5613 66.6055C15.4016 66.7045 15.2414 66.7838 15.0766 66.9024C14.9168 66.9615 14.757 67.0262 14.582 67.0955C14.577 67.2092 14.577 67.3131 14.5721 67.4119C14.4643 67.5649 14.3675 67.7252 14.2822 67.8918C14.3272 68.1438 14.4221 68.2229 14.5422 68.2131C14.5422 68.3221 14.5371 68.4256 14.5322 68.5246C14.8969 68.6238 15.1717 68.9901 15.5365 68.7723C15.9111 68.5445 16.2559 68.4164 16.5906 68.3418C16.6057 68.4557 16.6154 68.5691 16.6307 68.6832C16.3008 68.8115 15.9813 68.9356 15.5914 69.0938C15.5769 69.5688 15.5603 70.0438 15.5416 70.5188C15.9063 70.6227 16.1809 70.9881 16.5408 70.766C18.0746 69.8459 19.1488 70.5086 20.4477 70.4293C21.367 70.3697 22.2711 70.3848 23.1654 70.4143C23.2006 70.4293 23.2207 70.4443 23.2154 70.4543C22.1115 70.8742 24.085 71.1117 24.8791 71.2502C25.2389 71.3145 25.574 71.3541 25.8885 71.3891C24.2447 71.4385 22.1414 71.4981 19.7732 71.6217C19.7781 71.6217 20.8973 71.799 22.0164 71.9824C23.1307 72.1705 24.2498 72.3731 24.2248 72.4477C23.1205 72.868 25.0941 73.1104 25.8885 73.244C26.1582 73.2934 26.4131 73.3283 26.6531 73.3576C26.6477 73.3725 26.6477 73.3774 26.643 73.3922C26.7529 73.4418 26.8426 73.4863 26.943 73.3873C27.1775 73.4121 27.4074 73.432 27.6273 73.4418C28.0668 73.4664 28.5016 73.4865 28.951 73.511C29.066 73.6246 29.1959 73.7434 29.4008 73.5453C29.4557 73.5506 29.5106 73.5602 29.5654 73.5656C29.5607 73.5801 29.5506 73.5949 29.5408 73.6149C29.6057 73.6348 29.6856 73.6842 29.7906 73.5858C30.3102 73.6447 30.8248 73.7092 31.3293 73.7932C31.3041 73.8428 31.2795 73.9069 31.2594 74.011C31.3693 73.986 31.4941 74.1047 31.584 73.8375C31.659 73.8526 31.734 73.867 31.8139 73.882C31.7439 73.8922 31.6592 73.8772 31.5691 73.9215C31.5092 74.0899 31.6092 74.0156 31.549 74.184C31.2393 74.0455 30.8295 74.2531 30.5301 74.1149C30.4801 74.0901 30.465 73.9815 30.4152 73.9664C30.3199 73.9318 30.1654 74.0506 30.0504 74.0258C29.8805 73.9861 29.7707 73.9664 29.6557 73.8922C29.5807 73.9815 29.5059 74.0555 29.4359 74.1049C29.4762 74.0008 29.5061 73.9861 29.4559 73.9664C29.3307 74.0996 29.2811 74.1195 29.2209 73.9615C29.2658 73.833 29.2959 73.9467 29.3459 73.7934C29.251 73.7045 29.1361 73.8529 29.0213 74.0311C29.0361 74.3477 29.2359 74.1645 29.3709 74.2188C29.6107 74.3082 29.8756 74.5307 30.1453 74.4609C30.3252 74.8125 30.7699 74.2629 30.9195 74.6986C30.9746 74.6887 31.0346 74.6047 31.0945 74.5797C31.0797 74.743 31.0844 74.7533 31.1397 74.8274C31.1996 74.6889 31.1047 74.669 31.1643 74.6047C31.2844 74.4715 31.1643 74.793 31.2246 74.8072C31.449 74.8174 31.6443 74.8568 31.849 74.8916C31.9287 74.9066 32.019 74.8916 32.1186 74.8715C32.1088 74.8916 32.0986 74.9111 32.0938 74.9408C32.1037 74.9707 32.1139 75.01 32.1338 75.0445C32.0988 75.0397 32.069 75.0297 32.0389 75.0197C32.009 75.0152 31.944 75.099 31.9092 75.099C31.849 75.0943 31.8191 75.0051 31.769 75.0051C30.5252 74.9902 29.2111 74.8617 27.8322 74.9262C27.7373 74.9709 27.8473 74.7875 27.7572 74.8272C27.6574 74.9111 27.5625 74.9858 27.4623 75.0943C27.5523 75.1539 27.6522 75.1734 27.7572 75.1734C27.7221 75.2129 27.6875 75.2772 27.6475 75.3908C27.6574 75.3908 27.6623 75.3961 27.6674 75.3961C26.908 75.3961 26.1186 75.475 25.2441 75.8061C25.1344 75.9748 25.7389 75.8955 25.7289 76.0541C25.9537 76.2371 26.3285 76.2566 26.6381 76.2217C26.7706 76.2087 26.9023 76.1889 27.0328 76.1625L27.1928 76.1229C27.9522 76.4443 28.2717 76.2072 29.0213 76.6176C29.2209 76.5781 29.416 76.5432 29.6106 76.5084C29.6258 76.5385 29.6457 76.5582 29.6906 76.5676C29.7107 76.5387 29.7258 76.5137 29.7307 76.4887C29.7656 76.4838 29.8061 76.474 29.8406 76.4692C29.8654 76.4938 29.8906 76.5186 29.9156 76.5385C29.8953 76.5533 29.8805 76.5674 29.8604 76.5828C29.7154 76.6373 29.5705 76.7658 29.4406 76.9143C29.241 76.9143 29.0412 76.9143 28.8363 76.924C28.7463 76.9688 28.8563 76.7807 28.7662 76.825C28.6662 76.9094 28.5664 76.9836 28.4715 77.0924C28.6963 77.2356 28.9961 77.1367 29.2457 77.1516C29.1863 77.2322 29.1296 77.3148 29.0756 77.3992C28.1965 77.3742 27.2822 77.4088 26.2529 77.8045C26.1432 77.9676 26.7479 77.8938 26.7375 78.0518C26.9623 78.2299 27.332 78.2498 27.6471 78.2203C27.78 78.208 27.9119 78.1864 28.0418 78.1559C28.1418 78.1361 28.2016 78.1162 28.2016 78.1162C28.9607 78.4428 29.2807 78.2006 30.0301 78.6158C30.2299 78.5713 30.4248 78.5367 30.6197 78.5022C30.6346 78.5318 30.6547 78.5568 30.6994 78.5617C30.7186 78.5387 30.7323 78.5117 30.7395 78.4826C30.7746 78.4775 30.8096 78.4723 30.8494 78.4678C30.8744 78.4922 30.8943 78.5172 30.9191 78.5369C30.9043 78.5518 30.8844 78.5619 30.8693 78.5817C30.4346 78.7449 29.9801 79.5613 29.9801 79.5613C30.9742 79.3287 31.5988 79.7389 32.2881 80.2488C32.6078 80.2041 33.0275 80.115 33.2475 80.2688C33.8219 80.2783 34.3266 80.3395 34.8512 80.5078C34.9609 80.5412 35.0758 80.4688 35.1856 80.4688H36.5545C36.5846 80.4688 36.6494 80.4471 36.6994 80.4227L36.6844 80.5801L36.8395 80.4164C36.9291 80.4061 36.8094 80.5436 36.7244 80.5738C36.8141 80.5834 36.9043 80.469 36.9893 80.469H38.0781C38.1934 80.469 38.2932 80.6455 38.3932 80.3533C38.3981 80.4174 38.3729 80.3641 38.3432 80.4231C38.6432 80.3145 38.7078 80.2734 38.8127 80.4688H60.6654C60.7055 80.4688 60.7402 80.5908 60.7756 80.5856C60.9602 80.5856 61.1402 80.6543 61.2848 80.5701C61.2848 80.5654 61.2848 80.5945 61.2898 80.5893C61.4348 80.5397 61.5795 80.4775 61.7295 80.3344C61.8594 80.4483 62.0742 80.5211 62.2041 80.5063C62.349 80.333 62.4238 80.3123 62.5086 80.1492C62.569 80.1447 62.6338 80.142 62.6936 80.1367C62.7039 80.1664 62.7086 80.1924 62.7139 80.2121C62.9436 80.2471 63.1582 80.5492 63.3434 80.1584L63.3484 80.3565C63.4432 80.2434 63.558 80.1194 63.6729 80.0453C63.758 80.0352 63.8479 80.0254 63.9328 80.0154C63.9582 80.0256 63.9779 80.0406 63.9979 80.0602C64.0078 80.0406 64.0125 80.0205 64.0227 80.0059C64.1127 79.9908 64.1977 79.9811 64.2875 79.9711C64.4375 79.9711 64.5822 79.9512 64.7223 79.9115C65.2066 79.8371 65.6963 79.7584 66.1959 79.6891C66.7639 79.6172 67.3336 79.5593 67.9045 79.5154C67.9693 79.2535 68.1143 79.1498 68.2795 79.0902C68.3492 79.1154 68.4145 79.1004 68.4543 79.0459C68.4842 79.0412 68.5143 79.0359 68.5494 79.0309C68.5443 79.0359 68.5443 79.036 68.5443 79.0412C68.5691 79.0361 68.5941 79.0262 68.6141 79.0213C68.8639 78.9764 69.0986 78.9225 69.1986 78.5957C69.2033 78.4925 69.1753 78.3903 69.1186 78.3039C69.1287 78.2891 69.1336 78.2692 69.1436 78.2443L69.1186 78.299C69.0849 78.2477 69.0465 78.1997 69.0039 78.1555C69.0039 78.1406 68.999 78.1209 69.0039 78.101L69.0047 78.136C68.9795 78.1063 68.9451 78.0813 68.9451 78.0568V78.0317C68.9451 78.0371 68.9096 78.0371 68.9047 78.042C68.7348 77.8883 68.5422 77.7205 68.507 77.4236C68.7668 76.9686 69.1947 77.4926 69.5049 77.6361C69.4693 77.3246 69.3066 77.0971 69.0869 76.924C69.2514 76.8354 69.3906 76.6967 69.4902 76.4594C69.1654 76.3848 68.5897 76.4441 68.1604 76.4145C68.1463 76.3769 68.1292 76.3405 68.1092 76.3057C68.0943 76.2811 68.0742 76.2611 68.0545 76.2414C68.3541 76.1676 68.7092 76.217 69.0539 76.1229C69.0389 75.9299 68.9188 75.9889 68.9287 75.7369C69.2925 75.6655 69.6554 75.5896 70.0174 75.5094C71.1317 75.2723 72.2258 75.0838 73.2004 75.3412C73.7 75.2377 74.1842 75.1188 74.6639 75.0049C75.4434 75.1088 76.2777 75.2619 77.142 75.1733C77.6768 75.1133 78.226 74.886 78.7561 74.6635C78.866 74.6635 78.9756 74.6635 79.0805 74.649C79.5299 74.5994 80.0002 74.3918 80.4492 74.3125C81.0539 74.2088 81.7084 74.6738 82.1033 74.0256C82.1981 74.3916 82.6076 74.1688 82.6924 73.8625C82.508 73.6988 82.208 74.085 82.0531 73.7535C82.2111 73.6894 82.3647 73.6151 82.5131 73.5311C83.2225 73.3084 84.0719 72.858 84.716 71.9975C84.7461 71.6313 84.5611 71.9033 84.5914 71.5371C84.5961 71.2307 84.7358 71.31 84.7861 71.1317C84.6258 71.142 84.5512 71.3 84.4363 71.0775C84.5611 70.6967 84.8158 70.6967 84.8908 70.1625C84.7358 70.3452 84.5634 70.5124 84.376 70.6617C84.3963 70.5877 84.4162 70.5135 84.4363 70.4395C84.4412 70.2762 84.4465 70.1424 84.4465 70.0193C84.5863 69.8955 84.7211 69.7225 84.8313 69.5045C84.7309 69.3615 84.5762 69.6926 84.4512 69.5836C84.4512 69.3959 84.4512 69.2422 84.4365 69.0592C84.5563 69.0049 84.6666 68.9207 84.7463 68.7473C84.6363 68.8168 84.5313 68.891 84.4317 68.9799C84.4213 68.792 84.4065 68.5596 84.3813 68.2283C84.3274 68.1343 84.271 68.0418 84.2119 67.951C84.4584 67.7709 84.6742 67.5522 84.851 67.3033C84.7213 66.7391 84.9111 66.2742 85.0109 65.7899C85.0705 65.7848 85.1258 65.775 85.1811 65.7699C85.3404 65.7549 85.4707 65.982 85.6106 66.0072C86.0248 66.0863 86.3248 65.8934 86.6149 65.8043C86.6395 65.7795 86.6547 65.7199 86.6547 65.6117L86.5598 65.6211C85.975 65.6465 85.4057 65.3988 84.8813 65.4186L84.6111 65.4633L84.5113 65.4436L84.5063 65.4775C84.1965 65.5324 83.8818 65.5815 83.567 65.6315C83.6617 65.5324 83.7516 65.4287 83.8418 65.3047C83.8371 65.2848 83.8371 65.265 83.8316 65.2453C84.0892 65.1562 84.3428 65.0556 84.5914 64.944C84.4916 64.1916 84.0465 65.0969 83.7967 64.8941C83.7967 64.8299 83.802 64.7656 83.8066 64.7059C83.8916 64.6959 83.992 64.632 84.0016 64.4393C83.9516 64.4635 83.902 64.469 83.8469 64.469C83.8916 64.2412 83.9568 64.0186 84.0016 63.7961C84.0615 63.7861 84.1168 63.7762 84.1766 63.7713C84.2713 63.7613 84.3566 63.8457 84.4412 63.9147L84.4859 64.0729L84.5561 64.2809L84.4959 64.0529L84.451 63.9248C84.5012 63.9641 84.5512 64.0035 84.6012 64.0135C85.0156 64.0924 85.316 63.8947 85.6055 63.8108C85.6305 63.7861 85.6453 63.6533 85.6453 63.5393L85.5508 63.4766H85.5408C85.9207 63.2813 86.3051 63.4705 86.6902 63.4158C87.0697 63.3566 87.4793 63.3047 87.8942 63.2006C87.9242 63.2152 87.9543 63.2338 87.9789 63.1988C88.2238 63.1346 88.4736 63.0797 88.7184 63.0051C89.4229 62.8024 90.1377 62.5797 90.7969 62.4065C92.2108 62.1688 95.6777 61.8451 99.9895 61.4149C99.9844 61.4149 98.8205 61.3031 97.6611 61.1893ZM92.3205 54.2992L92.6701 54.1162L92.6453 54.2647L92.2957 54.4477L92.3205 54.2992ZM92.0006 50.085C92.0158 50.0748 92.0307 50.1147 92.0457 50.1297C92.0207 50.169 91.9955 50.2383 91.9807 50.2483C91.9608 50.2629 91.9457 50.2233 91.9305 50.2037C91.9557 50.1637 91.9807 50.0996 92.0006 50.085ZM91.6859 49.9914L91.6361 50.1197L91.6065 50.0455L91.6859 49.9914ZM85.6059 37.9914C85.666 37.9963 85.7209 37.8076 85.7809 37.8024C85.7559 37.8568 85.7408 37.8906 85.7408 37.8906H85.8557C85.7162 38.2813 85.5758 38.1834 85.4412 38.2131C85.4014 38.1238 85.3465 38.0996 85.3061 38.0059C85.3608 37.9807 85.5109 37.9816 85.6059 37.9914ZM85.1611 38.7432L85.3857 38.6641L85.3709 38.7281L85.1461 38.8076L85.1611 38.7432ZM84.042 38.7977L84.0373 38.8768L84.007 38.857L84.042 38.7977ZM83.0029 36.8141L83.3527 36.6361L83.3275 36.7844L82.9781 36.9627L83.0029 36.8141ZM82.683 32.6045C82.6981 32.5899 82.7133 32.6295 82.7281 32.6443C82.7033 32.6891 82.6781 32.7531 82.6629 32.7682C82.643 32.7777 82.6281 32.7385 82.6182 32.7234C82.6379 32.6789 82.6629 32.6195 82.683 32.6045ZM82.3686 32.5107L82.3186 32.6346L82.2885 32.565L82.3686 32.5107ZM68.9492 21.8518H68.9541C68.9492 21.8563 68.9492 21.8563 68.9441 21.8563C68.9441 21.8518 68.9492 21.8518 68.9492 21.8518ZM10.7002 42.9475C10.6451 42.9377 10.5854 42.8963 10.5301 42.9014C10.5502 42.8473 10.565 42.5783 10.565 42.5783H10.4553C10.5902 42.5783 10.7301 42.5154 10.8648 42.4863C10.9051 42.5799 10.96 42.7168 11.0047 42.8158C10.9449 42.84 10.7951 42.9574 10.7002 42.9475ZM11.1496 42.1959L10.925 42.275L10.9398 42.2109L11.1596 42.1315L11.1496 42.1959ZM12.2641 42.141L12.2689 42.0619L12.299 42.0816L12.2641 42.141ZM13.3031 44.1246L12.9535 44.3025L12.983 44.1543L13.3328 43.9764L13.3031 44.1246ZM13.6279 48.3342C13.6078 48.3486 13.5979 48.3094 13.5777 48.2943C13.6029 48.2498 13.6279 48.1857 13.648 48.1709C13.6629 48.1607 13.6779 48.2006 13.693 48.2152C13.6678 48.26 13.643 48.3186 13.6279 48.3342ZM13.9426 48.4281L13.9875 48.3045L14.0174 48.3736L13.9426 48.4281ZM19.7678 35.0436L19.7729 35.0139L19.518 35.0285L19.5531 35.0633C19.468 35.0682 19.3834 35.0779 19.2932 35.0879C19.3434 35.0633 19.398 35.0385 19.448 35.0139C19.423 34.9842 19.4031 34.8404 19.3834 34.8201C19.5131 34.8404 19.6381 34.7656 19.7629 34.7656H19.7729C19.8078 34.7656 19.8428 34.9045 19.8779 34.9092C19.8428 34.9092 19.8029 35.0385 19.7678 35.0436ZM15.9758 61.4813L15.6213 61.6594L15.6512 61.5108L16.001 61.3328L15.9758 61.4813ZM27.9367 75.4002C27.9865 75.3606 28.0414 75.2815 28.1014 75.158C28.3063 75.1481 28.4912 75.1625 28.6059 75.3756C29.0904 75.0588 29.4305 75.4647 29.8301 75.4049C29.85 75.4152 29.8703 75.4299 29.885 75.4449C29.2404 75.4647 28.601 75.4152 27.9367 75.4002ZM30.025 76.4438H30.0199C30.025 76.4438 30.0299 76.4438 30.035 76.4393C30.0299 76.4438 30.0299 76.4438 30.025 76.4438ZM56.0143 20.7981L56.0395 20.9365C56.0346 20.9365 56.0295 20.9412 56.0244 20.9412C55.9731 20.9058 55.9261 20.8643 55.8846 20.8178C55.9293 20.8076 55.9693 20.8027 56.0143 20.7981ZM34.3111 75.2272C34.2164 75.2322 34.0467 75.2963 33.9865 75.2615C33.9617 75.2416 33.9768 75.1332 33.9416 75.1332C33.867 75.1231 33.7619 75.2074 33.6869 75.2024C33.452 75.1879 33.1672 75.158 32.8928 75.1627C32.6676 75.168 32.443 75.1233 32.2332 75.0742C32.2533 75.0346 32.2779 74.96 32.3031 74.8463C32.2834 74.8611 32.2582 74.8563 32.2332 74.8463C32.4779 74.782 32.7229 74.7131 32.8027 74.8811C33.1525 74.9061 33.5473 74.9061 33.9566 74.9061C34.0119 74.9654 34.1117 74.9996 34.1967 74.9258C34.2467 74.9799 34.3166 75.0272 34.3914 75.032C34.5313 75.1117 34.7363 75.0004 34.6662 75.0004H34.6711C34.7859 75.0004 34.926 75.1858 35.0758 75.2201C34.8158 75.2246 34.5561 75.2123 34.3111 75.2272ZM34.5414 75.8451L34.4965 75.8602C34.4914 75.8602 34.4914 75.8602 34.4914 75.8553C34.4965 75.8502 34.5016 75.8502 34.5115 75.8451H34.5414ZM32.6076 75.6524C32.594 75.67 32.5747 75.6823 32.5529 75.6871C32.5479 75.6774 32.5377 75.6674 32.5328 75.6576H32.5777C32.5879 75.6574 32.5979 75.6524 32.6076 75.6524ZM29.2074 25.4881V25.5109C29.1854 25.5074 29.1627 25.5053 29.1406 25.5022C29.1627 25.4979 29.1852 25.4932 29.2074 25.4881ZM27.5318 34.8602C27.6865 34.8512 27.8414 34.8446 27.9963 34.8404C27.7916 34.8899 27.5969 34.9195 27.452 34.8701C27.4818 34.8652 27.5068 34.8602 27.5318 34.8602ZM24.0086 47.5506V47.7486C23.9906 47.7459 23.9727 47.743 23.9547 47.7406L24.0086 47.5506ZM32.0031 74.2231C31.9551 74.2174 31.9068 74.2141 31.8584 74.2131C31.7545 74.1878 31.6594 74.1347 31.5834 74.0594C31.6885 73.9459 31.7932 74.0449 31.8633 73.8916C32.1481 73.9361 32.4328 73.9906 32.7127 74.0397C32.5879 74.0793 32.468 74.0152 32.3281 74.1984C32.2879 74.2031 32.3131 74.099 32.2731 74.1045C32.1881 74.1834 32.0932 74.2133 32.0031 74.2231ZM31.034 78.4422L31.0293 78.4373H31.044C31.0389 78.4373 31.0389 78.4422 31.034 78.4422ZM31.5736 76.567C31.5336 76.5871 31.5186 76.5775 31.5186 76.5529C31.5635 76.5381 31.6084 76.5276 31.6484 76.5231C31.6236 76.5381 31.5986 76.5475 31.5736 76.567ZM31.5436 75.3906H31.5836C31.7086 75.3906 31.8285 75.549 31.9334 75.6031C31.9686 75.5635 31.9986 75.6031 32.0283 75.5834C32.0783 75.5785 32.1283 75.6076 32.1732 75.6029C32.1783 75.6277 32.1783 75.6697 32.1732 75.6994C32.0732 75.7686 31.9736 75.6641 31.8686 75.6539C31.7584 75.6143 31.6486 75.3906 31.5436 75.3906ZM31.9133 78.3432C32.0932 78.3334 32.268 78.3234 32.4379 78.3188C32.2432 78.4027 32.0731 78.3828 31.9133 78.3432ZM32.5828 78.5725C32.468 78.6365 32.5529 78.4699 32.5879 78.3367H32.6729C32.7627 78.3367 32.8527 78.3701 32.9377 78.3902C32.811 78.4329 32.6913 78.4943 32.5828 78.5725ZM33.5971 77.0524C33.607 76.9434 33.657 76.9139 33.6869 76.835C33.5871 76.7701 33.3121 77.1414 33.2322 77.0473L33.3023 76.9486C33.3924 76.9236 33.4822 76.8742 33.5371 76.8199C33.5219 76.81 33.507 76.7953 33.4922 76.7852C33.6369 76.7606 33.7568 76.7652 33.8117 76.8742C33.8266 76.8742 33.8418 76.8793 33.8619 76.8793C33.7719 76.9139 33.6772 76.884 33.5971 77.0524ZM33.8867 75.8994C33.7469 76.1174 33.617 76.0184 33.4721 76.0826C33.2373 76.0477 33.0123 76.0231 32.8373 75.944C32.8523 75.924 32.8723 75.8992 32.8875 75.8551C32.8373 75.8797 32.7871 75.8797 32.7275 75.8846C32.6817 75.8534 32.6411 75.815 32.6074 75.7709C32.6197 75.7306 32.6281 75.6892 32.6324 75.6473C32.6725 75.6424 32.7123 75.6373 32.7523 75.6275C32.8172 75.6373 32.8824 75.6373 32.9523 75.6275C32.9672 75.6322 32.982 75.6322 32.9973 75.6373C33.1922 75.7117 33.407 75.7609 33.6268 75.791C33.7217 75.8252 33.8215 75.84 33.9213 75.8447C33.9764 75.8795 34.0412 75.899 34.1014 75.9143C34.0166 75.969 33.9365 75.994 33.8867 75.8994ZM34.0867 76.9115L33.9416 77.1367H33.9268C33.9168 77.1367 33.9416 76.9608 33.9564 76.8719C34.0066 76.8719 34.0615 76.8764 34.1115 76.8764C34.1066 76.8918 34.0967 76.8969 34.0867 76.9115ZM35.0957 78.8078L34.9359 79.1221C34.9109 79.0133 34.9809 78.8586 34.9658 78.7645C34.8559 78.933 34.716 78.8037 34.6061 79.0315C34.6164 78.9225 34.6662 78.9047 34.691 78.8254C34.5963 78.7611 34.3213 79.136 34.2416 79.0418L34.3111 78.9445C34.4012 78.9149 34.4912 78.757 34.5461 78.6977C34.516 78.6779 34.4863 78.5152 34.4563 78.5152H35.241C35.1957 78.5156 35.1508 78.7235 35.0957 78.8078ZM35.5604 78.7178C35.5654 78.7027 35.5754 78.6889 35.5854 78.674C35.64 78.6838 35.6902 78.6988 35.7455 78.7135C35.7354 78.7186 35.7252 78.7274 35.7154 78.7274C35.7604 78.7319 35.8002 78.7361 35.8402 78.7361H35.85C35.7203 78.8697 35.6402 78.7672 35.5604 78.7178ZM35.8303 78.8674C35.8303 78.8229 35.8502 78.7885 35.875 78.7488C35.9152 78.7592 35.95 78.7686 35.985 78.7789C35.9313 78.8045 35.8796 78.8341 35.8303 78.8674ZM35.4256 74.8856C35.6252 74.8856 35.8252 74.8856 36.015 74.8906C36.0852 74.8955 36.14 74.9154 36.1949 74.9354C35.9388 74.9139 35.6823 74.8973 35.4256 74.8856ZM36.215 76.9139C36.215 76.9037 36.2197 76.8938 36.2197 76.8842H36.2299C36.225 76.8938 36.2199 76.8992 36.215 76.9139ZM37.224 78.9072C37.2289 78.8576 37.244 78.7984 37.269 78.7395C37.284 78.7395 37.3041 78.734 37.324 78.734C37.2842 78.7789 37.2541 78.8377 37.224 78.9072ZM38.8527 78.932C38.8578 78.8674 38.8627 78.818 38.8777 78.7789C38.8777 78.7736 38.8828 78.7736 38.8828 78.7736C38.9277 78.7736 38.9777 78.7686 39.0227 78.7639C39.1025 78.8328 39.1824 78.6889 39.2523 78.6397C39.2973 78.6348 39.3473 78.5156 39.3922 78.5156H39.5272C39.5322 78.5156 39.5322 78.6496 39.5322 78.659C39.3176 78.6789 39.0926 78.8377 38.8527 78.932ZM39.5424 78.659C39.5473 78.6494 39.5523 78.5156 39.5523 78.5156H40.0518C40.0721 78.5156 40.0918 78.5926 40.1117 78.6024C39.927 78.5879 39.7371 78.6449 39.5424 78.659ZM40.0967 77.0276C40.0915 76.9965 40.0915 76.9647 40.0967 76.9336C40.0518 76.993 40.0018 77.0227 39.9469 77.0473C39.8967 77.0428 39.8469 77.0428 39.7969 77.0428C39.8967 77.0131 40.0016 76.9584 40.0967 76.9336C40.1316 76.9236 40.1717 76.919 40.202 76.9236C40.2268 76.9287 40.2516 76.9436 40.2768 76.9533C40.2136 76.9695 40.1529 76.9945 40.0967 77.0276ZM41.1311 79.1051C41.1111 79.0854 41.0959 78.9666 41.1063 78.932C41.0014 79.0754 40.8463 79.0606 40.7715 79.1197C40.7764 79.0901 40.7764 79.0703 40.7764 79.0506C40.8813 79.0213 41.0014 78.9565 41.1063 78.932C41.1412 78.9223 41.176 78.9172 41.2109 78.9225C41.2461 78.927 41.276 78.9422 41.3111 78.9566C41.2461 79.0457 41.176 79.1789 41.1311 79.1051ZM41.2961 79.2137C41.3059 79.1348 41.3408 79.0606 41.3758 78.9959C41.4059 79.0162 41.4359 79.0358 41.4607 79.0557C41.4107 79.0854 41.3559 79.1348 41.2961 79.2137ZM41.9356 79.2334C41.9703 79.2383 42.0055 79.2383 42.0354 79.2383C42.0104 79.2879 41.9801 79.3078 41.9356 79.2334ZM43.3242 79.3276C43.2094 79.3574 43.2295 79.2438 43.2492 79.1295C43.2844 79.1295 43.3191 79.1295 43.3543 79.1346L43.3393 79.2084L43.3594 79.1348C43.3795 79.1348 43.3994 79.1348 43.4193 79.1393C43.3793 79.1742 43.3441 79.2287 43.3242 79.3276ZM43.9686 79.4955L43.9486 79.3576C43.9537 79.3576 43.9586 79.3522 43.9637 79.3475C44.0086 79.3869 44.0586 79.4266 44.1035 79.4756C44.0588 79.486 44.0137 79.4908 43.9686 79.4955ZM48.8022 22.9877V23.002C48.7765 23.0003 48.7507 22.9994 48.725 22.9992C48.7514 22.9943 48.777 22.9908 48.8022 22.9877ZM51.1383 25.5414C51.143 25.5414 51.1482 25.5414 51.1482 25.5367C51.1531 25.5367 51.1582 25.5414 51.1582 25.5414H51.1383ZM57.8178 25.4176C57.7781 25.4176 57.7379 25.4176 57.6977 25.4275C57.718 25.4029 57.733 25.3635 57.7379 25.299C57.6977 25.3137 57.6729 25.2473 57.6481 25.3162C57.6328 25.3213 57.6229 25.1953 57.6129 25.1953H57.3131C57.3631 25.1953 57.4082 25.2621 57.4481 25.2227C57.4229 25.2129 57.3981 25.2732 57.3733 25.2631C57.6326 25.2041 57.8727 25.1574 58.1772 25.1574C58.1873 25.1574 58.1922 25.2037 58.1973 25.2334C58.0574 25.2383 57.9227 25.2512 57.7926 25.3207C57.7926 25.3553 57.808 25.3928 57.8178 25.4176ZM66.9006 74.3811C67.0402 74.3912 67.1805 74.4061 67.3152 74.4258C67.176 74.4226 67.0373 74.4077 66.9006 74.3811ZM70.2529 75.0289C69.7135 74.8658 69.1639 74.8658 68.5992 74.9848L68.4643 75.0143C68.4297 74.999 68.4098 75.0092 68.3891 75.0342C68.3391 75.049 68.2893 75.0633 68.2395 75.0785C68.1892 75.024 68.1341 74.9743 68.0746 74.9301C68.1976 74.8625 68.3021 74.7658 68.3791 74.6484C68.5141 74.683 68.6492 74.7176 68.7789 74.757C69.2188 74.8856 69.7834 74.7129 70.343 74.7373C70.5127 74.7469 70.6826 74.7668 70.8475 74.792C70.6375 74.8264 70.433 74.8906 70.2529 75.0289ZM81.5838 50.9953C81.4519 50.9767 81.3203 50.9552 81.1893 50.9311C81.1992 50.8963 81.2045 50.8568 81.2145 50.8074C81.1789 50.8469 81.1393 50.8813 81.1043 50.9209C81.0147 50.9061 80.9246 50.8963 80.8346 50.8766L80.9246 50.5596C81.1693 50.6043 81.419 50.6438 81.669 50.6832L81.5838 50.9953ZM89.2525 57.6192C89.2029 57.6143 89.1481 57.658 89.0981 57.6535C89.0584 57.5746 89.018 57.51 88.9832 57.4305C89.018 57.4154 89.0736 57.3934 89.1381 57.3684C89.193 57.359 89.2525 57.35 89.308 57.34C89.3578 57.3455 89.4076 57.25 89.4576 57.2449C89.4379 57.2992 89.4229 57.4219 89.4182 57.4219H89.5328C89.4424 57.4219 89.3479 57.5897 89.2525 57.6192ZM91.6109 57.6086C91.6758 57.6233 91.7111 57.727 91.7359 57.8406C91.6713 57.8459 91.6065 57.8406 91.5365 57.8406C91.5363 57.7369 91.5463 57.6477 91.6109 57.6086ZM90.7721 57.8359C90.7867 57.752 90.8117 57.6774 90.8719 57.6086C90.9818 58.0783 91.1963 57.5543 91.3365 57.8406C91.1465 57.8406 90.9565 57.8406 90.7721 57.8359ZM91.666 60.1852C91.5859 60.1902 91.5012 60.1955 91.4211 60.1955C91.5809 60.1807 91.7508 60.1606 91.9258 60.1408C92.0158 60.1508 92.1055 60.1608 92.1904 60.1758C92.0158 60.1758 91.8359 60.1807 91.666 60.1852Z" fill="#0D1116"/>
<path d="M57.5486 70.7977H46.4566V65.2516C38.8309 66.9152 36.751 61.092 36.751 61.092C35.3646 58.3191 33.9779 56.9324 33.9779 56.9324C31.2049 55.2684 33.9779 55.5457 33.9779 55.5457C36.751 55.5457 38.1375 58.319 38.1375 58.319C40.6332 62.4785 44.9314 61.7854 46.4566 61.0918C46.4566 59.7051 47.0111 57.6258 47.8432 56.9322C41.7424 56.2391 36.751 52.7731 36.751 45.8401C36.751 38.9076 38.1375 37.5211 39.524 36.1346C39.2469 35.4414 38.1375 32.9455 39.524 29.202C39.524 29.202 42.2971 29.202 45.0701 33.3615C46.4566 31.975 50.616 31.975 52.0025 31.975C53.3893 31.975 57.5486 31.975 58.9353 33.3615C61.7082 29.202 64.4813 29.202 64.4813 29.202C66.0064 32.9455 64.7588 35.4412 64.4813 36.1346C65.868 37.5211 67.2545 38.9076 67.2545 45.8401C67.2545 52.7731 62.2629 56.2391 56.1621 56.9322C56.9941 57.6258 57.5488 59.9828 57.5488 61.0918V70.7977H57.5486Z" fill="#ED1C24"/>
</svg>
